<?xml version="1.0" standalone="no"?>
<!DOCTYPE svg PUBLIC "-//W3C//DTD SVG 20010904//EN"
 "http://www.w3.org/TR/2001/REC-SVG-20010904/DTD/svg10.dtd">
<svg version="1.0" xmlns="http://www.w3.org/2000/svg"
 width="512.000000pt" height="512.000000pt" viewBox="0 0 512.000000 512.000000"
 preserveAspectRatio="xMidYMid meet">
<metadata>
Created by potrace 1.14, written by Peter Selinger 2001-2017
</metadata>
<g transform="translate(0.000000,512.000000) scale(0.100000,-0.100000)"
fill="#000000" stroke="none">
<path d="M2320 5105 c-79 -21 -142 -57 -200 -114 -132 -131 -163 -325 -79
-496 32 -67 121 -155 189 -188 200 -98 438 -32 555 153 125 198 66 458 -134
593 -80 53 -236 78 -331 52z"/>
<path d="M1957 4128 c-42 -9 -101 -38 -134 -66 -24 -21 -73 -90 -73 -104 0 -9
43 -5 168 16 40 7 69 9 65 6 -5 -4 -163 -67 -353 -140 -417 -161 -437 -170
-472 -219 -25 -35 -54 -133 -73 -243 -3 -18 -10 -49 -15 -68 -5 -19 -11 -46
-14 -60 -2 -14 -16 -79 -31 -145 -29 -127 -30 -132 -46 -210 -6 -27 -13 -63
-17 -80 -15 -67 -7 -131 20 -173 40 -60 90 -87 164 -87 49 0 68 5 102 27 51
34 69 61 88 130 13 46 46 193 60 268 20 99 86 376 92 382 4 4 140 58 302 122
162 63 313 121 335 130 37 15 38 15 20 0 -43 -34 -361 -265 -427 -309 -20 -13
-38 -28 -41 -32 -3 -4 -8 -57 -12 -118 -3 -60 -8 -128 -10 -150 -2 -22 -7 -80
-10 -130 -3 -49 -8 -112 -10 -140 -2 -27 -7 -90 -10 -140 -3 -49 -8 -118 -11
-152 -3 -34 0 -88 5 -120 6 -32 13 -71 15 -88 2 -16 6 -46 10 -65 3 -19 8 -53
11 -75 3 -22 12 -83 21 -135 8 -52 17 -111 20 -130 3 -19 11 -73 19 -120 16
-100 25 -153 30 -197 5 -36 -1 -53 -200 -578 -175 -459 -185 -490 -179 -545
24 -204 262 -286 402 -138 26 28 57 100 158 369 69 184 130 343 135 354 36 80
162 437 163 465 1 19 -2 58 -6 85 -5 28 -10 61 -12 75 -2 14 -7 42 -10 63 -3
20 -8 54 -11 75 -3 20 -16 105 -30 187 -31 199 -35 223 -41 270 -3 22 -10 58
-15 80 -13 60 -12 64 19 61 15 -2 44 -4 65 -5 20 0 37 -5 37 -10 0 -5 16 -45
36 -88 20 -43 53 -116 74 -163 21 -47 58 -129 84 -183 25 -55 46 -100 46 -102
0 -2 17 -41 38 -87 79 -170 92 -206 122 -338 18 -74 34 -146 36 -160 3 -14 14
-61 24 -105 11 -44 40 -172 65 -285 26 -113 48 -212 50 -220 2 -8 15 -69 30
-135 38 -167 68 -218 152 -256 145 -66 312 28 329 184 4 39 -3 89 -29 202 -20
83 -54 233 -77 335 -23 102 -64 282 -91 400 -27 118 -52 229 -55 245 -9 51
-32 113 -93 248 -67 149 -116 258 -139 307 -128 278 -122 255 -107 410 3 30 8
91 11 135 4 44 8 91 9 105 2 14 3 42 4 63 1 20 4 37 9 37 4 0 22 -13 40 -28
86 -70 480 -397 505 -419 90 -78 208 -82 281 -8 95 95 78 217 -45 320 -13 11
-53 44 -89 74 -86 71 -131 108 -280 232 -69 57 -136 113 -149 124 -13 11 -39
32 -57 48 -45 39 -159 224 -158 256 1 14 5 69 10 121 5 52 9 140 9 195 0 114
-16 155 -82 220 -34 33 -113 83 -113 71 0 -3 -14 -1 -31 4 -30 9 -73 14 -224
25 -38 3 -86 7 -105 10 -37 4 -185 17 -235 19 -16 1 -47 -2 -68 -6z"/>
<path d="M483 1833 c-7 -2 -20 -28 -28 -56 -41 -145 -445 -1711 -445 -1727 0
-10 7 -26 16 -34 13 -14 54 -16 298 -16 257 0 284 2 298 18 8 9 118 412 243
894 221 850 227 878 211 903 l-16 25 -283 -1 c-155 0 -288 -3 -294 -6z"/>
<path d="M1476 1830 c-18 -44 -456 -1749 -456 -1776 0 -17 6 -37 14 -43 9 -8
72 -11 202 -9 l189 3 -35 19 c-140 76 -230 227 -230 386 0 84 6 102 214 653
l166 438 -26 162 c-28 181 -29 188 -38 167z"/>
<path d="M3491 1827 c-6 -7 -45 -145 -86 -305 l-76 -292 87 -381 c80 -355 86
-387 82 -468 -3 -71 -10 -98 -36 -151 -39 -81 -110 -155 -188 -197 l-59 -32
206 -1 c166 0 209 3 218 14 16 19 461 1730 461 1771 0 17 -5 36 -12 43 -18 18
-581 17 -597 -1z"/>
<path d="M4498 1823 c-8 -10 -118 -413 -243 -895 -221 -850 -227 -878 -211
-903 l16 -25 279 0 c154 0 286 3 295 6 8 3 20 20 25 37 23 71 451 1729 451
1746 0 10 -8 25 -18 34 -16 15 -52 17 -299 17 -254 0 -281 -2 -295 -17z"/>
<path d="M2308 1052 c-90 -243 -121 -341 -197 -638 -50 -193 -91 -357 -91
-366 0 -8 8 -22 18 -31 16 -15 52 -17 299 -17 254 0 281 2 296 18 8 9 25 57
38 105 l22 88 -21 62 c-11 34 -71 288 -133 564 -63 277 -116 503 -119 503 -3
-1 -53 -130 -112 -288z"/>
</g>
</svg>
